PathFileType	4	(X/Y/Z)	pose_F01_0-89.trc
DataRate	CameraRate	NumFrames	NumMarkers	Units	OrigDataRate	OrigDataStartFrame	OrigNumFrames
30	30	6	21	m	30	11	89
Frame#	Time	CHip			RHip			RKnee			RAnkle			RBigToe			RSmallToe			RHeel			LHip			LKnee			LAnkle			LBigToe			LSmallToe			LHeel			Neck			Nose			RShoulder			RElbow			RWrist			LShoulder			LElbow			LWrist			
		X1	Y1	Z1	X2	Y2	Z2	X3	Y3	Z3	X4	Y4	Z4	X5	Y5	Z5	X6	Y6	Z6	X7	Y7	Z7	X8	Y8	Z8	X9	Y9	Z9	X10	Y10	Z10	X11	Y11	Z11	X12	Y12	Z12	X13	Y13	Z13	X14	Y14	Z14	X15	Y15	Z15	X16	Y16	Z16	X17	Y17	Z17	X18	Y18	Z18	X19	Y19	Z19	X20	Y20	Z20	X21	Y21	Z21	
11	0.36666666666666664	-0.2524349676180514	1.8343690891112667	-0.5096429260228305	-0.2660889745874673	1.8277113036793116	-0.44080110037853865	-0.2569925248505248	1.717405077238628	-0.4571959792178864	-0.23617752880919282	1.6136640673274332	-0.4413703695802904							-0.22638552464021186	1.6123964979942877	-0.4246374230687787	-0.23512474425204305	1.8330181877250205	-0.5716094393058195	-0.23819973170218736	1.7022939932679333	-0.5559750890750428	-0.2185205390324726	1.6113646605605323	-0.5016269895724365	-0.21910110380702325	1.5683460253217354	-0.5587694937546674	-0.2080152618170154	1.587321202290445	-0.5768019074783618	-0.21264218055935696	1.6131391267722188	-0.5032219231879591	-0.24232061564146307	1.982614005945191	-0.5164430961062909	-0.25023850364693706	2.0556587873392003	-0.5587580066591099	-1.8442687535513242	1.8919251820976948	1.343426738058381	-0.2761016866358242	1.8974378746048228	-0.3879457607533386	-0.285151362692608	1.8248639594342875	-0.3833432128131402	-0.21724013991252492	1.9853605050980179	-0.6069776282175979	-0.21283608861980913	1.9171155441804093	-0.6232743619941834	-0.21400811089136015	1.8389530494095863	-0.6323695690905061
12	0.4	-0.252706557210782	1.8337384833413133	-0.5095818226058794	-0.2663695581339778	1.827291374819416	-0.44076959880201433	-0.2569925248505248	1.717405077238628	-0.4571959792178864	-0.23617752880919282	1.6136640673274332	-0.4413703695802904							-0.22638552464021186	1.6123964979942877	-0.4246374230687787	-0.23539730680710672	1.8324918643477088	-0.5715281053947804	-0.23819973170218736	1.7022939932679333	-0.5559750890750428	-0.2185205390324726	1.6113646605605323	-0.5016269895724365	-0.21910110380702325	1.5683460253217354	-0.5587694937546674	-0.2080152618170154	1.587321202290445	-0.5768019074783618	-0.21264218055935696	1.6131391267722188	-0.5032219231879591	-0.24232504472340227	1.982588620055821	-0.5164946060579827	-0.2502536578919527	2.055654645279806	-0.5587809834138625	-0.2636027451362653	1.9832061989514183	-0.42398702947424266	-0.27636710985406787	1.8976269549955285	-0.3881058724636297	-0.2839732307552958	1.8267243874677275	-0.38057061236697964	-0.21724491357345221	1.985340977765634	-0.6069787156791805	-0.21322483315202104	1.908177606777432	-0.6236119881166653	-0.2138565255964724	1.8353172228509742	-0.6290182181019505
13	0.43333333333333335	-0.25130269839231023	1.8324455088886726	-0.5063596245855121	-0.26317756994410174	1.82702281543644	-0.4397977657801074	-0.2569925248505248	1.717405077238628	-0.4571959792178864	-0.23617752880919282	1.6136640673274332	-0.4413703695802904							-0.22638552464021186	1.6123964979942877	-0.4246374230687787	-0.2349600518931402	1.8310989284279378	-0.5715163933582402	-0.23819973170218736	1.7022939932679333	-0.5559750890750428	-0.2185205390324726	1.6113646605605323	-0.5016269895724365	-0.21910110380702325	1.5683460253217354	-0.5587694937546674	-0.2080152618170154	1.587321202290445	-0.5768019074783618	-0.21264218055935696	1.6131391267722188	-0.5032219231879591	-0.24233758432691324	1.9825967647507348	-0.5165123066084508	-0.2502567045922847	2.0557767673734224	-0.5587702229508759	-0.2636132583147143	1.983235657179467	-0.4240031682042638	-0.2763503442057273	1.8979365260720065	-0.3881513544104206	-0.2837237065849486	1.8243262982344823	-0.38519384760547104	-0.21725012730810747	1.9853353865317493	-0.6070069880028074	-0.21296938567817503	1.9072662650435661	-0.623481721430379	-0.21449309750389994	1.8309404601088972	-0.631883467953317
14	0.4666666666666667	-0.2524806963313542	1.831342399320818	-0.5093646349554123	-0.2642212653009622	1.8277267303598865	-0.4429510179114346	-0.2569925248505248	1.717405077238628	-0.4571959792178864	-0.23617752880919282	1.6136640673274332	-0.4413703695802904							-0.22638552464021186	1.6123964979942877	-0.4246374230687787	-0.23529380636236608	1.8309929237627443	-0.5714140476789462	-0.23819973170218736	1.7022939932679333	-0.5559750890750428	-0.2185205390324726	1.6113646605605323	-0.5016269895724365	-0.21910110380702325	1.5683460253217354	-0.5587694937546674	-0.2080152618170154	1.587321202290445	-0.5768019074783618	-0.21264218055935696	1.6131391267722188	-0.5032219231879591	-0.2423085778434138	1.982506291150501	-0.516551783072711	-0.2502567588029922	2.055794482333637	-0.5587952739127338	-0.26357278419200214	1.9832328535473236	-0.42401795426441485	-0.2765311152739682	1.8966979465580283	-0.3880962854566445	-0.2844481929470284	1.8228545219897239	-0.3798583796517912	-0.21606345280648687	1.9854878562070069	-0.6120751303937635	-0.21371987155414232	1.908252859491663	-0.6268435036436865	-0.21166301093459391	1.833024999909592	-0.6348412044181606
15	0.5	-0.2515773652934987	1.8324191029349457	-0.5062892463008642	-0.2632856008088852	1.828227866300981	-0.4399561106929102	-0.2569925248505248	1.717405077238628	-0.4571959792178864	-0.23617752880919282	1.6136640673274332	-0.4413703695802904							-0.22638552464021186	1.6123964979942877	-0.4246374230687787	-0.2352526032842515	1.8312808282968323	-0.5714218138303304	-0.23819973170218736	1.7022939932679333	-0.5559750890750428	-0.2185205390324726	1.6113646605605323	-0.5016269895724365	-0.21910110380702325	1.5683460253217354	-0.5587694937546674	-0.2080152618170154	1.587321202290445	-0.5768019074783618	-0.21264218055935696	1.6131391267722188	-0.5032219231879591	-0.24232087451077722	1.9825078445080881	-0.5165423662299479	-0.25119650323200426	2.0558432159976068	-0.5617844442833325	-1.8440651150326357	1.8918962939220176	1.3430592098813419	-0.2753066266976555	1.8976686163053345	-0.38494560505295833	-0.28431877576623227	1.8238944544584341	-0.38007342810598116	-0.21604651018583462	1.9857597668454385	-0.6120781963645117	-0.21387501972671358	1.9083997055168709	-0.6266120512996315	-0.21434752523569045	1.8330270498797288	-0.6320275014991316
16	0.5333333333333333	-0.25113824873444446	1.8315042234055745	-0.5062315389948108	-0.26422531267645283	1.8279926691930755	-0.4402460784279455	-0.2569925248505248	1.717405077238628	-0.4571959792178864	-0.23617752880919282	1.6136640673274332	-0.4413703695802904							-0.22638552464021186	1.6123964979942877	-0.4246374230687787	-0.23491741359681592	1.8314519813974994	-0.5715248614791214	-0.23819973170218736	1.7022939932679333	-0.5559750890750428	-0.2185205390324726	1.6113646605605323	-0.5016269895724365	-0.21910110380702325	1.5683460253217354	-0.5587694937546674	-0.2080152618170154	1.587321202290445	-0.5768019074783618	-0.21264218055935696	1.6131391267722188	-0.5032219231879591	-0.24231634741873515	1.9826534903822046	-0.51651296147504	-0.25119503952057354	2.0558703156871285	-0.561771461201947	-1.8440074924582863	1.89185275240718	1.3429742030115133	-0.2764825164585815	1.8968251878889835	-0.3880461458552165	-0.2824445583318645	1.824921321159757	-0.3821634221500582	-0.21522432978132097	1.9855208671615834	-0.6091205329402517	-0.2138396742496231	1.9070530914988242	-0.6266956436214212	-0.21456603435433713	1.8318483611618988	-0.6320492693070537
